<svg xmlns="http://www.w3.org/2000/svg" version="1.1" xmlns:xlink="http://www.w3.org/1999/xlink" xmlns:svgjs="http://svgjs.dev/svgjs" viewBox="0 0 800 800"><defs><linearGradient x1="50%" y1="0%" x2="50%" y2="100%" id="ccchaos-grad"><stop stop-color="hsl(206, 75%, 49%)" stop-opacity="1" offset="0%"></stop><stop stop-color="hsl(331, 90%, 56%)" stop-opacity="1" offset="100%"></stop></linearGradient></defs><g stroke-width="2" stroke="url(#ccchaos-grad)" fill="none" stroke-linecap="round"><path d="M379.88 121.76C389.28 124.45 398.66 127 408.01 129.3 417.38 130.81 426.73 131.99 436.06 132.88 445.44 133.05 454.83 133.09 464.24 133.14 473.73 132.82 483.27 132.8 492.87 133.21 502.59 133.72 512.4 134.92 522.29 136.9 532.33 139.31 542.48 142.64 552.7 146.88 563.05 151.69 573.45 157.41 583.86 163.96 594.32 171.02 604.7 178.8 614.91 187.18 625.02 195.91 634.82 205.09 644.17 214.62 653.21 224.3 661.62 234.2 669.26 244.25 676.34 254.29 682.46 264.41 687.49 274.55 691.77 284.61 694.85 294.67 696.65 304.72 697.66 314.67 697.4 324.62 695.91 334.58 693.8 344.46 690.63 354.37 686.53 364.33 682.22 374.25 677.32 384.25 672.01 394.32 667.05 404.38 662.09 414.54 657.31 424.78 653.41 435.02 650.09 445.09 647.4 454.97 645.81 464.82 644.86 474.44 644.51 483.77 645.13 493.04 646.15 501.94 647.43 510.42 649.34 518.75 651.21 526.57 652.89 533.8 655.46 543.99 657.45 560.48 656.27 566.69 653.57 571.91 642.69 579.45 634.63 582.45 628.52 584.83 621.63 587.34 614.07 590.18 606.16 593.93 597.69 598.35 588.75 603.59 579.59 610.04 570.07 617.45 560.28 625.8 550.38 635.24 540.28 645.4 530.05 656.02 519.79 667.04 509.46 677.89 499.1 688.15 488.75 697.71 478.39 705.88 468.07 712.23 457.78 716.87 447.52 719.16 437.33 718.95 427.15 716.75 417.03 712.16 407 705.43 396.96 697.52 387.22 688.51 377.79 678.98 368.33 669.79 359.16 661.04 350.27 653.14 341.34 646.72 332.67 641.62 324.25 637.9 315.78 635.94 307.54 635.21 299.53 635.48 291.43 637 283.54 638.95 275.86 641.02 268.05 643.45 260.43 645.38 252.99 646.55 245.41 647.31 237.99 646.91 230.74 645.27 223.35 642.81 216.11 639.01 209.05 633.94 201.86 628.02 194.85 620.95 188.06 612.9 181.16 604.21 174.51 594.76 168.13 584.74 161.71 574.34 155.61 563.58 149.88 552.6 144.18 541.48 138.89 530.28 134.05 519.11 129.33 507.92 125.12 496.83 121.45 485.88 117.95 474.98 115.04 464.23 112.74 453.67 110.65 443.16 109.19 432.81 108.39 422.66 107.8 412.53 107.86 402.57 108.6 392.81 109.49 383.04 111.01 373.68 113.08 364.73 115.25 355.76 117.92 347.19 121.06 339.02 124.19 330.83 127.73 323.02 131.64 315.59 135.45 308.12 139.59 301 144 294.23 148.26 287.35 152.76 280.76 157.49 274.42 162.03 267.9 166.78 261.54 171.72 255.31 176.46 248.79 181.42 242.29 186.57 235.77 191.55 228.86 196.75 221.85 202.18 214.71 207.47 207.15 213.02 199.46 218.83 191.66 224.55 183.53 230.57 175.38 236.86 167.3 243.11 159.14 249.67 151.25 256.53 143.79 263.37 136.57 270.52 130.03 277.97 124.32 285.41 119.19 293.15 115.09 301.16 112.1 309.18 109.85 317.47 108.74 326 108.77 334.53 109.37 343.3 110.9 352.29 113.24 361.28 115.7 370.48 118.6 379.87 121.76" stroke-dasharray="2 10" transform="rotate(0, 400, 400)" opacity="0.25"></path><path d="M382.24 132.99C391.33 135.66 400.43 138.21 409.54 140.53 418.66 142.1 427.81 143.37 436.97 144.36 446.16 144.65 455.4 144.79 464.67 144.91 474.02 144.64 483.43 144.6 492.91 144.91 502.48 145.23 512.14 146.17 521.87 147.79 531.71 149.76 541.62 152.56 551.57 156.21 561.6 160.36 571.64 165.39 581.62 171.22 591.61 177.54 601.46 184.59 611.07 192.27 620.54 200.32 629.65 208.88 638.27 217.83 646.56 227 654.2 236.45 661.07 246.1 667.4 255.81 672.79 265.65 677.16 275.55 680.83 285.44 683.38 295.35 684.75 305.25 685.42 315.11 684.93 324.97 683.33 334.8 681.2 344.6 678.12 354.39 674.21 364.18 670.14 373.95 665.53 383.74 660.56 393.54 655.92 403.34 651.26 413.16 646.75 422.97 643.05 432.79 639.84 442.37 637.18 451.68 635.52 460.97 634.42 469.96 633.85 478.58 634.18 487.15 634.87 495.31 635.81 503 637.36 510.56 638.9 517.6 640.3 524.05 642.55 533.15 644.46 547.88 643.57 553.52 641.38 558.5 632.09 566.53 625.04 570.26 619.67 573.26 613.54 576.5 606.75 580.15 599.64 584.7 591.95 589.92 583.77 595.91 575.38 602.99 566.58 610.89 557.48 619.58 548.25 629.16 538.78 639.25 529.14 649.61 519.46 660.18 509.65 670.45 499.78 680.01 489.9 688.81 479.98 696.22 470.06 701.88 460.16 705.93 450.27 707.79 440.42 707.33 430.58 705.08 420.78 700.63 411.03 694.21 401.29 686.7 391.82 678.16 382.64 669.08 373.43 660.27 364.48 651.77 355.8 643.97 347.07 637.47 338.59 632.1 330.34 627.96 322.03 625.43 313.94 624.04 306.06 623.62 298.09 624.42 290.31 625.74 282.72 627.3 275.03 629.35 267.5 631.09 260.13 632.28 252.65 633.26 245.31 633.31 238.14 632.31 230.84 630.67 223.7 627.84 216.73 623.85 209.65 619.12 202.75 613.28 196.06 606.47 189.31 599.04 182.79 590.81 176.54 581.92 170.28 572.63 164.33 562.88 158.74 552.81 153.21 542.53 148.07 532.07 143.39 521.54 138.83 510.95 134.76 500.37 131.22 489.86 127.86 479.36 125.06 468.97 122.87 458.74 120.89 448.53 119.52 438.47 118.79 428.6 118.27 418.75 118.38 409.07 119.15 399.58 120.08 390.09 121.61 381.01 123.68 372.33 125.85 363.63 128.51 355.32 131.62 347.38 134.73 339.42 138.24 331.8 142.09 324.54 145.87 317.21 149.96 310.18 154.31 303.44 158.53 296.58 162.98 289.95 167.65 283.5 172.13 276.85 176.82 270.32 181.69 263.85 186.38 257.09 191.26 250.32 196.32 243.51 201.21 236.33 206.31 229.05 211.61 221.66 216.78 213.92 222.18 206.08 227.82 198.19 233.36 190.06 239.16 181.98 245.23 174.05 251.23 166.11 257.52 158.52 264.09 151.4 270.63 144.6 277.46 138.5 284.57 133.24 291.67 128.56 299.05 124.88 306.71 122.29 314.35 120.38 322.27 119.55 330.43 119.79 338.59 120.54 347 122.16 355.64 124.53 364.27 126.99 373.14 129.86 382.23 132.98" stroke-dasharray="6 0" transform="rotate(4.04, 400, 400)" opacity="0.50"></path><path d="M385.28 144.21C394.07 146.86 402.9 149.4 411.77 151.73 420.64 153.37 429.56 154.72 438.52 155.81 447.51 156.22 456.56 156.48 465.66 156.69 474.82 156.48 484.05 156.45 493.34 156.69 502.71 156.9 512.14 157.61 521.63 158.93 531.19 160.51 540.79 162.84 550.39 165.94 560.04 169.47 569.64 173.82 579.13 178.94 588.58 184.53 597.84 190.83 606.81 197.78 615.61 205.1 624.01 212.96 631.9 221.27 639.44 229.82 646.33 238.71 652.45 247.85 658.06 257.11 662.78 266.54 666.52 276.08 669.64 285.66 671.71 295.29 672.7 304.94 673.08 314.58 672.41 324.23 670.73 333.85 668.62 343.45 665.65 353.04 661.92 362.59 658.1 372.14 653.79 381.66 649.14 391.14 644.81 400.62 640.45 410.07 636.2 419.44 632.69 428.82 629.59 437.9 626.97 446.66 625.25 455.39 624.03 463.77 623.26 471.75 623.32 479.67 623.71 487.16 624.34 494.16 625.54 501.07 626.75 507.45 627.87 513.27 629.77 521.54 631.48 535.09 630.78 540.48 629 545.5 621.07 554.46 614.92 559.05 610.21 562.72 604.79 566.7 598.72 571.13 592.36 576.42 585.42 582.34 577.98 588.96 570.33 596.53 562.26 604.79 553.85 613.67 545.31 623.24 536.49 633.15 527.47 643.16 518.38 653.22 509.13 662.84 499.78 671.69 490.4 679.73 480.96 686.41 471.48 691.41 462 694.91 452.51 696.38 443.02 695.7 433.55 693.4 424.08 689.1 414.65 682.98 405.22 675.88 396.03 667.79 387.09 659.17 378.14 650.73 369.43 642.51 360.95 634.85 352.43 628.31 344.13 622.74 336.04 618.25 327.9 615.21 319.96 613.21 312.2 612.13 304.37 612.25 296.71 612.92 289.22 613.92 281.64 615.5 274.2 616.95 266.93 618.02 259.55 619.06 252.31 619.37 245.23 618.82 238.04 617.82 231 615.78 224.14 612.7 217.19 609.01 210.42 604.29 203.87 598.63 197.26 592.4 190.89 585.35 184.8 577.61 178.71 569.46 172.93 560.78 167.51 551.68 162.15 542.35 157.19 532.75 152.67 522.99 148.27 513.11 144.36 503.17 140.97 493.23 137.75 483.26 135.08 473.34 133 463.52 131.13 453.72 129.85 444.02 129.19 434.49 128.74 424.96 128.9 415.58 129.7 406.38 130.66 397.18 132.2 388.36 134.27 379.92 136.42 371.45 139.06 363.35 142.13 355.59 145.21 347.78 148.68 340.29 152.48 333.11 156.21 325.84 160.25 318.83 164.54 312.06 168.71 305.14 173.1 298.4 177.71 291.79 182.14 284.98 186.78 278.23 191.58 271.52 196.21 264.52 201.02 257.5 206.01 250.41 210.82 243.01 215.83 235.53 221.03 227.96 226.09 220.11 231.36 212.21 236.85 204.32 242.23 196.27 247.85 188.34 253.72 180.64 259.51 173 265.57 165.77 271.89 159.05 278.16 152.7 284.71 147.06 291.52 142.26 298.31 138.05 305.37 134.8 312.7 132.58 320.01 131 327.58 130.44 335.41 130.87 343.23 131.76 351.3 133.46 359.62 135.85 367.92 138.3 376.48 141.13 385.27 144.21" stroke-dasharray="10 3" transform="rotate(8.08, 400, 400)" opacity="0.34"></path><path d="M388.88 155.43C397.38 158.05 405.94 160.58 414.55 162.92 423.17 164.61 431.85 166.05 440.58 167.23 449.34 167.77 458.16 168.15 467.04 168.46 475.97 168.34 484.96 168.34 494 168.57 503.1 168.69 512.25 169.24 521.41 170.3 530.63 171.55 539.86 173.46 549.04 176.07 558.22 179.04 567.32 182.76 576.26 187.2 585.13 192.06 593.76 197.62 602.07 203.82 610.19 210.39 617.87 217.51 625.02 225.1 631.83 232.96 637.99 241.2 643.41 249.73 648.34 258.43 652.43 267.35 655.6 276.41 658.22 285.55 659.87 294.78 660.53 304.06 660.66 313.37 659.85 322.69 658.13 332 656.05 341.31 653.2 350.6 649.68 359.83 646.09 369.07 642.07 378.26 637.74 387.38 633.71 396.49 629.64 405.53 625.65 414.45 622.32 423.37 619.34 431.96 616.77 440.18 615.01 448.38 613.68 456.2 612.74 463.6 612.56 470.96 612.67 477.87 612.99 484.31 614.32 493.61 617.13 509.59 618.04 516.28 618.54 522.49 616.46 533.19 613.62 538.08 609.66 543.41 597.79 555.62 590 563.11 584.34 569.04 578.11 575.55 571.38 582.67 564.45 590.59 557.09 599.07 549.36 608 541.5 617.45 533.34 627.07 524.94 636.63 516.46 646.11 507.8 655.07 498.99 663.18 490.15 670.49 481.2 676.45 472.19 680.82 463.16 683.81 454.09 684.91 445 684.05 435.91 681.73 426.8 677.58 417.7 671.76 408.6 665.04 399.71 657.4 391.04 649.23 382.35 641.18 373.88 633.26 365.61 625.77 357.31 619.24 349.2 613.53 341.28 608.75 333.32 605.26 325.52 602.72 317.9 601.04 310.21 600.49 302.68 600.52 295.3 600.93 287.84 601.99 280.52 603.04 273.35 603.89 266.09 604.84 258.96 605.24 251.99 604.97 244.93 604.4 238.02 602.97 231.29 600.63 224.49 597.81 217.87 594.06 211.47 589.42 205.03 584.29 198.83 578.36 192.91 571.72 187.01 564.69 181.42 557.08 176.18 549.01 171.01 540.68 166.24 532 161.89 523.08 157.68 514.02 153.93 504.81 150.7 495.53 147.63 486.19 145.1 476.84 143.14 467.52 141.38 458.2 140.19 448.94 139.61 439.79 139.22 430.64 139.43 421.61 140.25 412.71 141.23 403.81 142.77 395.24 144.82 387.01 146.97 378.77 149.57 370.83 152.6 363.2 155.64 355.51 159.05 348.1 162.79 340.94 166.47 333.69 170.45 326.65 174.68 319.79 178.79 312.78 183.13 305.9 187.67 299.11 192.05 292.12 196.63 285.17 201.37 278.22 205.95 271.02 210.7 263.77 215.61 256.48 220.36 248.92 225.29 241.3 230.39 233.64 235.36 225.77 240.52 217.9 245.88 210.1 251.13 202.23 256.6 194.54 262.29 187.13 267.9 179.86 273.76 173.04 279.85 166.78 285.89 160.9 292.19 155.75 298.74 151.42 305.25 147.67 312.03 144.84 319.06 142.99 326.07 141.73 333.34 141.41 340.86 142.02 348.36 143.04 356.12 144.79 364.12 147.19 372.12 149.62 380.37 152.41 388.87 155.43" stroke-dasharray="3 1" transform="rotate(12.12, 400, 400)" opacity="0.64"></path><path d="M392.91 166.66C401.13 169.24 409.41 171.75 417.74 174.09 426.09 175.83 434.51 177.34 442.98 178.62 451.48 179.28 460.04 179.79 468.64 180.21 477.29 180.2 485.99 180.26 494.72 180.5 503.5 180.58 512.29 181.02 521.08 181.89 529.9 182.86 538.68 184.42 547.38 186.59 556.05 189.05 564.6 192.19 572.95 196 581.2 200.17 589.18 205.02 596.81 210.47 604.23 216.27 611.2 222.63 617.63 229.48 623.73 236.6 629.2 244.13 633.95 251.98 638.25 260.03 641.77 268.33 644.42 276.81 646.59 285.41 647.87 294.13 648.25 302.93 648.18 311.79 647.27 320.69 645.53 329.58 643.5 338.5 640.79 347.41 637.48 356.25 634.14 365.11 630.4 373.91 626.37 382.6 622.63 391.31 618.84 399.91 615.1 408.37 611.95 416.83 609.1 424.93 606.58 432.66 604.8 440.37 603.37 447.69 602.28 454.59 601.88 461.46 601.74 467.9 601.79 473.89 602.65 482.59 604.67 497.73 605.31 504.24 605.68 510.48 603.84 521.85 601.38 527.4 599.31 531.45 596.6 535.62 593.26 540.01 589.67 544.96 585.46 550.29 580.66 556.06 575.63 562.52 570.06 569.49 564 576.97 557.75 585.09 551.06 593.64 544.01 602.49 536.82 611.7 529.3 620.93 521.52 629.98 513.67 638.84 505.59 647.1 497.34 654.49 489.05 661.06 480.62 666.35 472.09 670.12 463.54 672.63 454.91 673.41 446.23 672.38 437.55 670.05 428.82 666.06 420.07 660.53 411.31 654.2 402.74 647 394.35 639.27 385.95 631.61 377.72 624.01 369.68 616.73 361.61 610.25 353.7 604.46 345.96 599.45 338.19 595.59 330.56 592.58 323.09 590.34 315.56 589.16 308.17 588.56 300.92 588.38 293.6 588.89 286.41 589.48 279.37 590 272.24 590.74 265.26 591.09 258.42 590.93 251.51 590.63 244.75 589.61 238.17 587.84 231.54 585.7 225.09 582.74 218.86 578.99 212.62 574.82 206.62 569.89 200.89 564.28 195.2 558.3 189.81 551.73 184.76 544.66 179.81 537.33 175.23 529.6 171.08 521.56 167.06 513.37 163.49 504.95 160.41 496.39 157.51 487.76 155.12 479.04 153.28 470.29 151.63 461.52 150.54 452.76 150.03 444.04 149.71 435.32 149.96 426.65 150.8 418.07 151.8 409.49 153.34 401.19 155.36 393.17 157.48 385.13 160.05 377.35 163.02 369.81 166.01 362.23 169.36 354.87 173.03 347.7 176.65 340.45 180.56 333.35 184.71 326.38 188.77 319.28 193.04 312.27 197.51 305.3 201.84 298.16 206.35 291.03 211.03 283.89 215.55 276.53 220.24 269.14 225.08 261.72 229.77 254.09 234.63 246.42 239.65 238.77 244.54 230.97 249.6 223.23 254.85 215.62 259.98 208.01 265.32 200.63 270.86 193.59 276.32 186.75 281.99 180.39 287.9 174.61 293.73 169.23 299.81 164.58 306.13 160.74 312.4 157.43 318.92 155.01 325.68 153.51 332.42 152.55 339.4 152.47 346.64 153.24 353.85 154.36 361.32 156.16 369.03 158.55 376.73 160.95 384.69 163.7 392.9 166.66" stroke-dasharray="8 7" transform="rotate(16.16, 400, 400)" opacity="0.32"></path><path d="M397.22 177.88C405.14 180.42 413.13 182.9 421.18 185.24 429.24 187.02 437.37 188.6 445.55 189.97 453.75 190.75 462.01 191.39 470.3 191.93 478.62 192.04 486.98 192.2 495.35 192.47 503.74 192.55 512.13 192.92 520.48 193.65 528.84 194.42 537.12 195.69 545.3 197.48 553.42 199.5 561.38 202.13 569.12 205.36 576.73 208.9 584.04 213.06 590.98 217.8 597.71 222.86 603.98 228.46 609.73 234.55 615.15 240.9 619.96 247.68 624.09 254.81 627.81 262.14 630.8 269.75 633 277.58 634.76 285.55 635.73 293.68 635.88 301.91 635.65 310.23 634.66 318.61 632.94 327 630.99 335.44 628.42 343.88 625.32 352.26 622.22 360.67 618.76 369.02 615.03 377.27 611.57 385.52 608.05 393.67 604.55 401.66 601.58 409.65 598.85 417.29 596.4 424.57 594.6 431.83 593.1 438.71 591.89 445.2 591.11 454.7 591.15 471.69 591.59 479.2 592.37 486.39 592.93 499.37 592.34 505.41 591.19 511.69 586.01 524.9 581.88 532.25 578.74 537.77 575.02 543.64 570.76 549.91 566.3 556.77 561.33 564.06 555.88 571.75 550.27 579.94 544.22 588.42 537.8 597.07 531.25 605.93 524.37 614.7 517.2 623.17 509.96 631.37 502.47 638.92 494.78 645.59 487.05 651.46 479.14 656.09 471.11 659.32 463.06 661.38 454.89 661.86 446.64 660.7 438.38 658.38 430.05 654.54 421.67 649.31 413.28 643.35 405.03 636.58 396.94 629.29 388.84 622.03 380.89 614.76 373.08 607.71 365.26 601.33 357.58 595.51 350.04 590.35 342.47 586.18 335.03 582.75 327.72 580.03 320.37 578.28 313.14 577.08 306.05 576.32 298.9 576.24 291.86 576.34 284.97 576.45 278.01 576.88 271.19 577.06 264.5 576.87 257.78 576.66 251.2 575.89 244.79 574.49 238.35 572.87 232.11 570.53 226.07 567.49 220.05 564.13 214.26 560.07 208.74 555.35 203.27 550.33 198.11 544.72 193.28 538.59 188.54 532.23 184.18 525.42 180.23 518.26 176.41 510.95 173.03 503.36 170.12 495.55 167.38 487.66 165.14 479.62 163.43 471.48 161.9 463.31 160.9 455.08 160.46 446.83 160.21 438.58 160.5 430.32 161.36 422.08 162.37 413.85 163.89 405.82 165.88 398.01 167.97 390.19 170.49 382.56 173.39 375.12 176.32 367.64 179.61 360.32 183.19 353.15 186.75 345.9 190.58 338.75 194.65 331.69 198.63 324.52 202.84 317.39 207.23 310.3 211.5 303.05 215.94 295.8 220.55 288.54 225.02 281.11 229.64 273.66 234.42 266.19 239.05 258.58 243.84 250.98 248.78 243.42 253.59 235.8 258.57 228.29 263.71 220.95 268.74 213.68 273.96 206.7 279.37 200.1 284.69 193.73 290.21 187.86 295.94 182.6 301.6 177.74 307.49 173.58 313.59 170.22 319.65 167.36 325.94 165.33 332.46 164.17 338.94 163.48 345.67 163.61 352.63 164.52 359.58 165.73 366.77 167.56 374.2 169.93 381.62 172.31 389.29 174.99 397.21 177.88" stroke-dasharray="7 3" transform="rotate(20.200000000000003, 400, 400)" opacity="0.60"></path><path d="M401.63 189.11C409.25 191.6 416.94 194.04 424.69 196.37 432.44 198.18 440.26 199.82 448.11 201.27 455.98 202.18 463.9 202.95 471.83 203.61 479.79 203.86 487.76 204.12 495.71 204.46 503.68 204.58 511.62 204.93 519.49 205.56 527.34 206.18 535.09 207.22 542.7 208.72 550.25 210.36 557.6 212.54 564.69 215.26 571.66 218.23 578.31 221.77 584.57 225.84 590.63 230.2 596.23 235.07 601.31 240.41 606.09 246 610.29 252.02 613.85 258.4 617.05 264.98 619.56 271.86 621.35 278.99 622.78 286.27 623.47 293.73 623.44 301.34 623.08 309.03 622.05 316.82 620.37 324.65 618.51 332.54 616.1 340.44 613.22 348.31 610.35 356.22 607.16 364.07 603.71 371.84 600.53 379.61 597.26 387.29 593.99 394.82 591.2 402.36 588.6 409.56 586.22 416.43 584.42 423.28 582.87 429.79 581.55 435.95 580.5 444.99 579.82 461.37 579.87 468.77 580.28 475.98 580.34 489.46 579.66 496 578.57 502.87 573.91 517.54 570.24 525.67 567.47 531.64 564.18 537.94 560.39 544.57 556.43 551.7 551.99 559.16 547.1 566.91 542.07 575.03 536.62 583.32 530.79 591.66 524.85 600.08 518.58 608.31 512 616.16 505.35 623.69 498.44 630.52 491.3 636.48 484.12 641.67 476.75 645.69 469.21 648.4 461.66 650.06 453.97 650.27 446.16 649 438.35 646.7 430.43 643.02 422.43 638.08 414.43 632.49 406.53 626.14 398.76 619.29 390.98 612.43 383.31 605.5 375.77 598.71 368.22 592.47 360.78 586.67 353.46 581.42 346.12 577.02 338.88 573.25 331.77 570.1 324.63 567.84 317.59 566.09 310.67 564.77 303.71 564.12 296.86 563.7 290.14 563.36 283.38 563.4 276.75 563.31 270.26 562.97 263.73 562.71 257.36 562.02 251.16 560.85 244.94 559.54 238.92 557.65 233.11 555.16 227.32 552.43 221.77 549.08 216.48 545.13 211.26 540.93 206.33 536.17 201.73 530.89 197.23 525.41 193.09 519.48 189.35 513.16 185.74 506.7 182.56 499.91 179.83 492.85 177.26 485.72 175.17 478.37 173.58 470.86 172.17 463.32 171.27 455.65 170.9 447.9 170.71 440.14 171.04 432.31 171.91 424.43 172.92 416.56 174.43 408.83 176.38 401.25 178.43 393.66 180.89 386.2 183.72 378.87 186.59 371.52 189.79 364.26 193.29 357.1 196.76 349.88 200.5 342.73 204.48 335.62 208.39 328.42 212.5 321.25 216.81 314.09 221.01 306.8 225.38 299.52 229.91 292.22 234.31 284.81 238.87 277.39 243.57 269.99 248.14 262.51 252.86 255.07 257.72 247.72 262.46 240.36 267.35 233.17 272.4 226.2 277.34 219.35 282.46 212.82 287.74 206.7 292.93 200.85 298.32 195.51 303.89 190.77 309.39 186.44 315.1 182.79 321.01 179.88 326.88 177.45 332.95 175.8 339.25 174.95 345.51 174.52 351.99 174.83 358.7 175.86 365.39 177.15 372.31 179 379.47 181.34 386.61 183.67 394 186.29 401.62 189.1" stroke-dasharray="10 8" transform="rotate(24.24, 400, 400)" opacity="0.66"></path><path d="M405.98 200.33C413.29 202.76 420.67 205.17 428.09 207.48 435.51 209.32 442.99 211.01 450.49 212.53 458 213.56 465.54 214.45 473.07 215.24 480.62 215.63 488.17 216.01 495.67 216.44 503.17 216.63 510.62 216.99 517.97 217.59 525.29 218.12 532.48 218.99 539.5 220.25 546.45 221.6 553.18 223.41 559.64 225.7 565.96 228.17 571.95 231.15 577.56 234.62 582.97 238.32 587.93 242.51 592.39 247.14 596.58 252 600.22 257.27 603.25 262.91 605.98 268.73 608.08 274.88 609.52 281.29 610.64 287.83 611.12 294.6 610.93 301.53 610.49 308.55 609.45 315.7 607.83 322.93 606.07 330.21 603.83 337.53 601.16 344.85 598.52 352.21 595.59 359.54 592.43 366.81 589.5 374.09 586.48 381.29 583.44 388.38 580.82 395.46 578.35 402.26 576.05 408.76 574.26 415.25 572.67 421.45 571.27 427.34 569.99 436.03 568.65 452.06 568.34 459.48 568.39 466.81 567.92 480.96 567.12 488.02 566.02 495.47 561.72 511.43 558.42 520.18 555.95 526.49 553.01 533.08 549.62 539.94 546.1 547.19 542.14 554.68 537.75 562.35 533.24 570.28 528.33 578.26 523.05 586.19 517.67 594.1 511.96 601.73 505.95 608.93 499.87 615.76 493.51 621.89 486.92 627.15 480.28 631.69 473.43 635.14 466.4 637.37 459.35 638.66 452.14 638.64 444.78 637.28 437.42 635.02 429.93 631.51 422.33 626.86 414.73 621.63 407.21 615.68 399.77 609.26 392.33 602.8 384.98 596.23 377.72 589.72 370.46 583.67 363.28 577.94 356.21 572.65 349.12 568.09 342.13 564.05 335.24 560.55 328.32 557.83 321.51 555.59 314.8 553.75 308.06 552.56 301.43 551.61 294.92 550.8 288.38 550.4 281.97 549.96 275.69 549.37 269.41 548.94 263.26 548.21 257.3 547.1 251.33 545.96 245.55 544.35 239.99 542.23 234.46 539.96 229.16 537.16 224.13 533.82 219.16 530.3 214.49 526.25 210.13 521.72 205.88 517.02 201.98 511.87 198.46 506.31 195.07 500.64 192.09 494.61 189.54 488.27 187.15 481.86 185.22 475.2 183.76 468.32 182.47 461.4 181.66 454.3 181.36 447.06 181.22 439.81 181.59 432.43 182.46 424.95 183.47 417.46 184.96 410.05 186.86 402.73 188.86 395.4 191.26 388.14 194.01 380.96 196.79 373.76 199.91 366.61 203.31 359.52 206.69 352.38 210.33 345.26 214.21 338.18 218.02 331.02 222.05 323.87 226.26 316.73 230.37 309.5 234.66 302.27 239.1 295.05 243.43 287.76 247.91 280.48 252.53 273.25 257.03 265.99 261.67 258.82 266.45 251.78 271.11 244.78 275.93 237.99 280.88 231.46 285.73 225.09 290.74 219.07 295.91 213.48 300.99 208.17 306.24 203.38 311.67 199.18 317.03 195.36 322.57 192.2 328.3 189.75 333.99 187.73 339.87 186.43 345.95 185.86 351.99 185.66 358.25 186.15 364.71 187.27 371.15 188.61 377.81 190.47 384.69 192.78 391.56 195.05 398.65 197.59 405.97 200.33" stroke-dasharray="1 0" transform="rotate(28.28, 400, 400)" opacity="0.22"></path><path d="M410.1 211.56C417.09 213.92 424.14 216.28 431.21 218.56 438.29 220.42 445.4 222.15 452.51 223.74 459.64 224.87 466.77 225.89 473.88 226.81 480.99 227.33 488.07 227.85 495.09 228.39 502.1 228.67 509.03 229.08 515.84 229.68 522.6 230.17 529.22 230.95 535.64 232.04 541.99 233.16 548.09 234.68 553.92 236.6 562.29 239.91 576.93 249.01 582.99 254.78 588.2 261.23 595.51 276.24 597.52 284.64 598.39 290.46 598.69 296.52 598.4 302.76 597.9 309.1 596.87 315.58 595.32 322.17 593.68 328.82 591.61 335.54 589.15 342.29 586.74 349.08 584.06 355.87 581.17 362.63 578.49 369.41 575.71 376.14 572.89 382.8 570.44 389.46 568.1 395.88 565.89 402.05 564.12 408.22 562.51 414.15 561.05 419.84 559.57 428.27 557.65 444.12 557.01 451.64 556.72 459.15 555.72 474.01 554.77 481.56 554.1 486.83 553.11 492.2 551.77 497.7 550.4 503.5 548.65 509.49 546.5 515.68 544.27 522.2 541.63 528.94 538.58 535.88 535.42 543.1 531.86 550.48 527.91 557.95 523.87 565.56 519.44 573.14 514.66 580.57 509.81 587.91 504.62 594.92 499.13 601.44 493.58 607.57 487.76 613.01 481.69 617.61 475.58 621.54 469.24 624.45 462.7 626.25 456.15 627.21 449.41 626.98 442.51 625.56 435.61 623.34 428.56 620 421.37 615.63 414.19 610.75 407.05 605.21 399.97 599.21 392.89 593.15 385.87 586.94 378.92 580.74 371.98 574.9 365.1 569.29 358.3 564.02 351.49 559.36 344.76 555.13 338.13 551.36 331.47 548.26 324.9 545.59 318.44 543.28 311.96 541.58 305.57 540.13 299.3 538.85 293.02 537.99 286.86 537.15 280.84 536.25 271.87 535.11 254.78 531.64 246.74 528.99 238.97 525.82 224.81 516.98 218.51 511.32 214.51 507.27 210.86 502.79 207.57 497.91 204.4 492.93 201.63 487.59 199.27 481.92 197.06 476.19 195.27 470.17 193.94 463.89 192.77 457.58 192.06 451.05 191.83 444.32 191.74 437.58 192.14 430.66 193.01 423.58 194.02 416.51 195.47 409.44 197.33 402.41 199.27 395.37 201.59 388.36 204.25 381.37 206.95 374.37 209.96 367.39 213.25 360.42 216.53 353.43 220.07 346.43 223.82 339.45 227.54 332.42 231.45 325.38 235.55 318.36 239.57 311.28 243.76 304.21 248.1 297.17 252.35 290.1 256.74 283.08 261.26 276.13 265.68 269.2 270.24 262.38 274.92 255.74 279.51 249.19 284.23 242.87 289.08 236.84 293.84 231 298.75 225.53 303.8 220.49 308.77 215.74 313.9 211.51 319.18 207.84 327.09 203.19 343.7 197.7 352.41 196.9 358.25 196.91 364.28 197.54 370.5 198.75 376.7 200.13 383.1 201.98 389.7 204.23 396.29 206.44 403.09 208.91 410.09 211.55" stroke-dasharray="7 7" transform="rotate(32.32, 400, 400)" opacity="0.41"></path><path d="M413.83 222.78C420.49 225.08 427.19 227.38 433.89 229.62 440.6 231.48 447.32 233.25 454.03 234.9 460.74 236.12 467.44 237.25 474.1 238.29 480.75 238.97 487.35 239.62 493.86 240.28 500.36 240.67 506.75 241.17 513 241.81 519.2 242.3 525.24 243.03 531.07 244.02 539.56 245.64 554.99 250.71 561.76 254.26 567.88 258.39 577.63 268.83 581.13 275.07 583.78 281.84 586.12 297 585.83 305.25 585.31 310.9 584.31 316.73 582.86 322.68 581.34 328.69 579.44 334.81 577.2 340.99 575.01 347.2 572.57 353.45 569.94 359.72 567.49 365.99 564.94 372.27 562.34 378.51 560.06 384.76 557.84 390.83 555.73 396.71 553.19 405.44 549.23 422.03 547.75 429.95 546.82 437.81 545.27 453.16 544.47 460.79 543.75 468.65 541.36 484.94 539.53 493.52 538.21 499.53 536.56 505.7 534.56 512.04 532.52 518.62 530.11 525.37 527.34 532.24 524.49 539.31 521.28 546.45 517.71 553.6 514.06 560.8 510.06 567.88 505.74 574.76 501.34 581.48 496.63 587.83 491.63 593.67 486.58 599.11 481.26 603.88 475.68 607.85 470.07 611.2 464.23 613.62 458.18 615.02 452.11 615.69 445.84 615.29 439.41 613.82 432.96 611.66 426.35 608.5 419.59 604.41 412.84 599.87 406.1 594.72 399.39 589.13 392.69 583.48 386.03 577.64 379.42 571.76 372.81 566.16 366.25 560.72 359.76 555.52 353.26 550.83 346.83 546.48 340.47 542.5 334.11 539.1 327.83 536.07 321.64 533.36 315.44 531.2 309.33 529.28 303.34 527.55 297.35 526.23 291.47 524.98 285.72 523.72 277.2 522.14 260.99 518.29 253.38 515.73 246.06 512.82 232.76 504.98 226.87 500.01 221.44 494.5 212.47 481.47 209.01 474.02 206.16 466.18 202.79 449.02 202.3 439.79 202.28 433.55 202.69 427.1 203.56 420.45 204.56 413.8 205.97 407.11 207.77 400.4 209.65 393.69 211.88 386.96 214.45 380.23 217.05 373.49 219.95 366.73 223.12 359.97 226.29 353.19 229.7 346.4 233.33 339.61 236.93 332.8 240.72 325.98 244.7 319.17 248.61 312.35 252.68 305.55 256.91 298.79 261.05 292.05 265.34 285.37 269.75 278.8 274.08 272.29 278.54 265.92 283.12 259.76 287.61 253.71 292.23 247.92 296.98 242.44 301.64 237.17 306.44 232.27 311.36 227.81 316.22 223.63 321.21 219.94 326.35 216.79 334.04 212.87 350.13 208.5 358.54 208.08 364.17 208.28 369.98 209.02 375.95 210.29 381.91 211.69 388.04 213.51 394.35 215.71 400.66 217.85 407.15 220.22 413.81 222.78" stroke-dasharray="3 8" transform="rotate(36.36, 400, 400)" opacity="0.59"></path><path d="M417.02 234C423.35 236.22 429.68 238.46 436 240.66 442.32 242.52 448.63 244.3 454.91 245.99 467.48 248.24 479.88 250.22 491.9 252.08 503.81 252.9 515.19 254.16 525.76 256.12 536 257.85 545.18 260.78 553.01 265 560.23 269.53 565.86 275.49 569.66 282.77 572.74 290.46 573.95 299.33 573.27 309.13 572.12 319.19 569.39 329.97 565.3 341.2 563.33 346.85 561.12 352.58 558.73 358.36 556.51 364.15 554.19 369.99 551.78 375.84 549.67 381.7 547.59 387.44 545.57 393.04 543.89 398.66 542.28 404.15 540.75 409.52 538.69 420.33 536.8 430.81 534.95 441.02 534.02 451.59 532.68 462.23 530.73 473.06 529.11 484.58 526.47 496.59 522.71 509.07 518.85 522.25 513.69 535.76 507.25 549.17 500.59 562.51 492.65 574.92 483.58 585.59 474.35 594.7 464.07 600.96 452.92 603.7 447.32 604.11 441.52 603.57 435.54 602.07 429.55 599.98 423.38 597 417.06 593.19 410.74 588.98 404.41 584.21 398.1 579.03 391.79 573.77 385.51 568.31 379.25 562.77 366.76 552.41 354.4 542.65 342.33 533.95 330.25 527.24 318.45 521.65 307.07 516.95 295.73 513.81 284.84 510.82 274.6 507.56 264.5 504.87 255.13 501.24 246.71 496.44 238.59 491.58 231.55 485.3 225.81 477.63 220.53 469.76 216.66 460.57 214.38 450.2 213.18 442.23 213.03 424.99 214.12 415.78 215.1 409.56 216.46 403.26 218.19 396.92 220 390.58 222.15 384.19 224.6 377.77 229.63 364.92 235.74 351.92 242.73 338.91 249.63 325.9 257.28 312.9 265.51 300.14 273.49 287.52 282.03 275.35 291.01 263.97 299.71 253.14 308.9 243.51 318.53 235.48 327.93 228.5 337.86 223.47 348.3 220.65 358.58 218.99 369.47 219.43 380.93 221.89 386.63 223.3 392.5 225.08 398.51 227.2 404.52 229.27 410.69 231.55 417.01 234" stroke-dasharray="9 0" transform="rotate(40.400000000000006, 400, 400)" opacity="0.30"></path><path d="M419.57 245.23C431.49 249.25 443.37 253.26 455.05 257.03 466.72 259.46 478.15 261.68 489.13 263.77 499.99 264.87 510.26 266.3 519.7 268.28 528.83 269.92 536.92 272.53 543.72 276.24 550 280.09 554.81 285.2 557.97 291.49 560.55 298.08 561.47 305.8 560.72 314.44 559.63 323.29 557.15 332.91 553.45 343.09 550.01 353.34 545.86 364.02 541.23 374.99 537.59 385.95 534.02 396.68 530.67 407.11 528.46 417.63 526.34 428.03 524.22 438.34 522.93 448.96 521.28 459.76 519.11 470.78 517.3 482.35 514.63 494.31 510.99 506.58 507.35 519.29 502.57 532.1 496.65 544.56 490.59 556.75 483.38 567.86 475.11 577.19 466.7 585.05 457.31 590.26 447.05 592.29 436.74 592.11 425.64 588.63 413.87 581.96 402.1 573.93 390.26 564.23 378.52 553.77 366.79 543.93 355.15 534.42 343.76 525.7 332.39 518.61 321.27 512.44 310.56 507.07 299.91 503.11 289.7 499.39 280.12 495.59 270.7 492.45 261.99 488.64 254.19 483.94 246.7 479.32 240.22 473.52 234.97 466.52 230.15 459.41 226.65 451.08 224.63 441.61 223.11 432.08 223.08 421.48 224.67 409.92 226.68 398.36 230.1 386.43 234.72 374.31 239.51 362.22 245.35 349.94 252.02 337.66 258.64 325.45 265.99 313.29 273.91 301.45 281.63 289.84 289.89 278.75 298.58 268.53 307.04 258.89 315.96 250.44 325.28 243.56 334.4 237.63 344.01 233.51 354.05 231.41 363.96 230.27 374.4 231.01 385.33 233.55 396.21 236.38 407.63 240.38 419.56 245.23" stroke-dasharray="4 7" transform="rotate(44.44, 400, 400)" opacity="0.23"></path><path d="M421.36 256.45C432.53 260.32 443.58 264.24 454.36 268 465.13 270.58 475.58 273.01 485.52 275.33 495.35 276.72 504.56 278.35 512.92 280.42 521.01 282.06 528.09 284.5 533.96 287.84 539.4 291.19 543.5 295.63 546.11 301.13 548.27 306.79 548.97 313.51 548.2 321.13 547.2 328.9 544.97 337.47 541.67 346.69 538.62 355.95 534.89 365.76 530.68 376.01 527.31 386.26 523.92 396.47 520.63 406.59 518.32 416.78 516.03 427.01 513.69 437.29 512.09 447.82 510.17 458.58 507.8 469.55 505.79 480.92 503.06 492.58 499.5 504.37 496.01 516.39 491.53 528.3 486.05 539.67 480.5 550.62 473.91 560.42 466.35 568.46 458.7 575.13 450.12 579.38 440.71 580.79 431.26 580.32 421.04 576.93 410.15 570.74 399.26 563.37 388.26 554.45 377.3 544.75 366.37 535.48 355.51 526.32 344.85 517.71 334.24 510.41 323.86 503.82 313.86 497.91 303.95 493.24 294.47 488.85 285.59 484.5 276.88 480.84 268.86 476.73 261.7 471.97 254.83 467.39 248.93 461.88 244.17 455.35 239.81 448.79 236.68 441.15 234.91 432.47 233.59 423.74 233.66 414 235.22 403.31 237.17 392.63 240.42 381.55 244.8 370.27 249.35 359.02 254.88 347.6 261.21 336.21 267.52 324.93 274.53 313.77 282.1 302.99 289.52 292.49 297.47 282.58 305.82 273.56 313.99 265.12 322.59 257.86 331.56 252.08 340.37 247.15 349.61 243.87 359.22 242.4 368.74 241.72 378.7 242.7 389.07 245.27 399.4 248.03 410.18 251.85 421.36 256.45" stroke-dasharray="1 7" transform="rotate(48.48, 400, 400)" opacity="0.95"></path><path d="M422.32 267.68C432.72 271.38 442.92 275.19 452.8 278.9 462.65 281.6 472.13 284.21 481.07 286.74 489.9 288.41 498.08 290.27 505.44 292.47 515.64 295.39 530.2 304.68 534.11 311.51 535.92 316.45 536.46 322.33 535.72 329.09 534.83 335.92 532.87 343.57 529.94 351.91 527.26 360.27 523.94 369.27 520.13 378.83 517.03 388.39 513.82 398.07 510.64 407.81 508.27 417.6 505.85 427.56 503.35 437.63 501.49 447.9 499.34 458.41 496.8 469.09 494.61 480.02 491.8 491.13 488.3 502.22 484.9 513.35 480.66 524.21 475.56 534.4 470.42 544.08 464.37 552.57 457.46 559.38 450.48 564.95 442.65 568.34 434.06 569.21 425.42 568.49 416.05 565.24 406.03 559.51 396.02 552.79 385.87 544.64 375.74 535.71 365.64 527.04 355.58 518.33 345.71 509.94 335.9 502.58 326.3 495.74 317.06 489.44 307.92 484.2 299.2 479.25 291.05 474.39 283.08 470.21 275.76 465.74 269.26 460.81 263.02 456.15 257.7 450.75 253.43 444.54 249.52 438.37 246.74 431.27 245.22 423.26 244.1 415.23 244.25 406.28 245.77 396.46 247.64 386.64 250.72 376.45 254.84 366.08 259.12 355.76 264.33 345.31 270.3 334.93 276.27 324.69 282.92 314.63 290.09 305.01 297.17 295.68 304.75 286.99 312.72 279.2 320.55 271.95 328.79 265.83 337.36 261.09 345.81 257.06 354.63 254.54 363.78 253.62 372.85 253.32 382.3 254.49 392.07 257.04 401.82 259.71 411.93 263.33 422.32 267.68" stroke-dasharray="2 10" transform="rotate(52.52, 400, 400)" opacity="0.51"></path><path d="M422.43 278.9C432.04 282.42 441.38 286.09 450.35 289.74 459.3 292.52 467.83 295.26 475.8 297.96 483.67 299.89 490.89 301.98 497.32 304.33 506.23 307.42 518.73 316.24 522.01 322.42 523.56 326.8 523.99 332.03 523.3 338.07 522.54 344.13 520.83 350.98 518.27 358.54 515.93 366.11 513 374.36 509.58 383.25 506.74 392.13 503.74 401.25 500.68 410.52 498.3 419.84 495.81 429.38 493.2 439.07 491.15 448.9 488.81 458.94 486.13 469.1 483.79 479.38 480.91 489.72 477.45 499.91 474.12 510.02 470.07 519.72 465.29 528.67 460.51 537.08 454.93 544.3 448.6 549.96 442.23 554.52 435.09 557.14 427.25 557.55 419.38 556.65 410.84 553.54 401.69 548.29 392.54 542.19 383.25 534.8 373.97 526.63 364.71 518.62 355.49 510.42 346.44 502.37 337.45 495.1 328.67 488.17 320.23 481.65 311.9 476.01 303.96 470.6 296.56 465.33 289.34 460.67 282.73 455.85 276.89 450.73 271.29 445.9 266.53 440.52 262.74 434.52 259.28 428.6 256.84 421.93 255.56 414.5 254.62 407.07 254.85 398.85 256.32 389.87 258.11 380.9 261 371.62 264.84 362.22 268.85 352.87 273.72 343.45 279.29 334.17 284.9 325.03 291.14 316.14 297.89 307.72 304.58 299.6 311.74 292.12 319.28 285.53 326.72 279.42 334.54 274.37 342.66 270.58 350.69 267.38 359.06 265.51 367.69 265.05 376.27 265.08 385.17 266.37 394.31 268.87 403.43 271.42 412.83 274.82 422.43 278.9" stroke-dasharray="4 9" transform="rotate(56.56, 400, 400)" opacity="0.63"></path><path d="M421.68 290.13C430.47 293.44 438.95 296.95 447.03 300.5 455.08 303.31 462.69 306.15 469.74 308.98 476.71 311.14 483.04 313.44 488.63 315.96 496.36 319.26 507.08 327.9 509.85 333.64 511.37 339.99 509.6 356.33 506.66 366.29 504.65 373.15 502.08 380.7 499.02 388.92 496.45 397.13 493.67 405.64 490.76 414.35 488.4 423.09 485.89 432.08 483.23 441.22 481.04 450.44 478.58 459.82 475.81 469.24 473.34 478.69 470.41 488.1 467 497.24 463.72 506.22 459.84 514.71 455.34 522.41 450.87 529.57 445.72 535.6 439.91 540.19 434.08 543.84 427.59 545.79 420.47 545.82 413.32 544.78 405.57 541.85 397.27 537.06 388.98 531.58 380.55 524.92 372.13 517.52 363.73 510.19 355.37 502.57 347.17 494.95 339.02 487.92 331.08 481.06 323.46 474.49 315.94 468.6 308.8 462.91 302.18 457.34 295.71 452.31 289.81 447.19 284.62 441.9 279.65 436.88 275.45 431.49 272.13 425.64 269.1 419.9 267 413.57 265.93 406.65 265.17 399.75 265.46 392.2 266.88 384.05 268.56 375.89 271.25 367.54 274.81 359.13 278.53 350.77 283.03 342.43 288.2 334.28 293.41 326.26 299.21 318.55 305.5 311.34 311.76 304.39 318.47 298.1 325.52 292.64 332.52 287.6 339.87 283.52 347.49 280.58 355.04 278.1 362.89 276.79 370.97 276.71 379 276.97 387.29 278.34 395.76 280.75 404.23 283.16 412.89 286.33 421.68 290.13" stroke-dasharray="6 1" transform="rotate(60.599999999999994, 400, 400)" opacity="0.83"></path><path d="M420.09 301.35C428.05 304.45 435.68 307.77 442.89 311.18 450.07 313.99 456.8 316.87 462.99 319.78 471.86 323.36 486.13 330.81 491.25 335.07 495.32 339.44 499.02 350.78 498.7 357.93 498.21 362.88 497 368.49 495.1 374.74 493.4 380.99 491.17 387.89 488.47 395.43 486.16 402.97 483.59 410.82 480.86 418.87 478.58 426.95 476.09 435.25 473.44 443.68 471.17 452.13 468.64 460.69 465.83 469.2 463.28 477.68 460.34 486.03 456.99 494.04 453.78 501.83 450.05 509.09 445.82 515.56 441.62 521.52 436.86 526.45 431.53 530.07 426.21 532.92 420.31 534.29 413.87 534.02 407.42 532.9 400.43 530.17 392.97 525.84 385.5 520.94 377.93 515.01 370.37 508.37 362.83 501.73 355.33 494.75 347.99 487.66 340.7 480.98 333.61 474.35 326.83 467.89 320.14 461.95 313.8 456.13 307.94 450.42 302.22 445.15 297.03 439.84 292.48 434.44 288.13 429.29 284.47 423.89 281.61 418.18 278.99 412.58 277.2 406.56 276.35 400.12 275.74 393.69 276.08 386.78 277.43 379.42 279.01 372.06 281.49 364.61 284.76 357.2 288.16 349.82 292.29 342.54 297.02 335.52 301.81 328.61 307.15 322.05 312.94 316 318.72 310.18 324.93 304.98 331.46 300.57 337.96 296.49 344.78 293.28 351.84 291.07 358.87 289.21 366.15 288.36 373.61 288.56 381.05 289 388.69 290.39 396.46 292.67 404.23 294.92 412.13 297.84 420.09 301.35" stroke-dasharray="5 6" transform="rotate(64.64, 400, 400)" opacity="0.84"></path><path d="M417.73 312.58C424.86 315.44 431.63 318.55 438 321.79 444.34 324.54 450.24 327.41 455.62 330.34 463.33 334.11 475.61 341.95 479.99 346.29 483.5 350.67 486.75 361.47 486.54 368.1 486.18 372.64 485.2 377.77 483.62 383.47 482.19 389.14 480.28 395.42 477.92 402.28 475.86 409.13 473.53 416.27 471 423.58 468.81 430.91 466.41 438.41 463.82 445.99 461.53 453.56 458.99 461.16 456.2 468.66 453.63 476.08 450.71 483.3 447.46 490.13 444.32 496.73 440.77 502.78 436.79 508.08 430.66 514.89 416.08 522.21 407.62 522.16 401.83 521 395.58 518.48 388.93 514.62 382.28 510.29 375.55 505.05 368.84 499.17 362.16 493.25 355.52 486.94 349.05 480.46 342.62 474.24 336.37 467.97 330.42 461.78 324.55 455.96 319.01 450.19 313.91 444.51 308.93 439.16 304.43 433.79 300.5 428.39 296.75 423.2 293.61 417.85 291.18 412.32 288.95 406.89 287.46 401.18 286.8 395.19 286.34 389.22 286.71 382.93 287.98 376.34 289.44 369.74 291.71 363.17 294.67 356.73 297.75 350.31 301.49 344.06 305.77 338.12 310.11 332.26 314.97 326.79 320.22 321.82 325.5 317.03 331.16 312.83 337.12 309.35 343.07 306.11 349.31 303.65 355.77 302.05 362.21 300.7 368.86 300.21 375.67 300.61 382.46 301.16 389.42 302.51 396.45 304.64 403.49 306.7 410.61 309.37 417.73 312.58" stroke-dasharray="10 5" transform="rotate(68.68, 400, 400)" opacity="0.55"></path><path d="M414.69 323.8C427.27 328.71 438.44 334.51 447.76 340.66 456.91 345.32 464.01 350.73 468.65 356.97 473.05 362.39 475.03 369.33 474.49 377.92 474.09 386.27 471.68 396.63 467.36 408.95 464.02 421.26 459.55 434.46 454.35 447.75 450.11 460.93 444.78 473.87 438.42 485.38 432.49 496.03 425.06 504.29 416.22 508.85 407.44 511.49 397.04 509.79 385.32 503.39 373.59 495.58 361.73 485.02 350.44 473.3 339.3 462.19 328.95 450.72 320.12 439.51 311.7 429.27 305.05 418.8 300.86 408.15 297.29 397.83 296.35 386.73 298.53 375.03 301.34 363.33 306.9 352.16 314.46 342.19 322.26 332.5 331.85 324.5 342.53 318.94 353.24 314.05 365 311.9 377.2 312.82 389.41 314.06 402.11 317.81 414.69 323.8" stroke-dasharray="0 0" transform="rotate(72.72, 400, 400)" opacity="0.95"></path><path d="M411.08 335.02C422 339.48 431.59 344.87 439.52 350.71 447.33 355.42 453.36 360.86 457.3 366.99 461.1 372.43 462.89 379.1 462.56 387.03 462.38 394.75 460.46 404.08 456.81 414.95 453.89 425.82 449.84 437.27 445.04 448.57 440.94 459.75 435.85 470.45 429.88 479.69 424.26 488.21 417.42 494.56 409.48 497.77 401.61 499.55 392.45 497.78 382.27 492.17 372.09 485.49 361.9 476.4 352.28 466.15 342.78 456.22 334.03 445.73 326.64 435.31 319.56 425.53 314.05 415.57 310.65 405.63 307.73 395.94 307.07 385.84 309.08 375.6 311.6 365.36 316.47 355.92 323.09 347.78 329.93 339.83 338.35 333.49 347.75 329.3 357.2 325.54 367.57 324.09 378.3 325.18 389.05 326.4 400.17 329.73 411.08 335.02" stroke-dasharray="8 5" transform="rotate(76.76, 400, 400)" opacity="0.79"></path><path d="M407.05 346.25C416.32 350.2 424.4 355.09 431.04 360.5 437.61 365.09 442.67 370.37 446.01 376.23 449.28 381.57 450.89 387.87 450.75 395.1 450.77 402.17 449.28 410.44 446.26 419.83 443.77 429.21 440.18 438.85 435.86 448.15 432.04 457.33 427.31 465.87 421.84 473.02 416.65 479.6 410.47 484.29 403.46 486.4 396.51 487.5 388.58 485.76 379.91 480.94 371.23 475.35 362.66 467.71 354.65 458.98 346.73 450.37 339.51 441.09 333.48 431.75 327.68 422.79 323.23 413.65 320.56 404.64 318.24 395.8 317.82 386.82 319.64 378.01 321.83 369.19 326.02 361.35 331.68 354.82 337.53 348.39 344.75 343.45 352.8 340.36 360.93 337.5 369.84 336.55 379.04 337.66 388.27 338.78 397.78 341.66 407.05 346.25" stroke-dasharray="6 8" transform="rotate(80.80000000000001, 400, 400)" opacity="0.13"></path><path d="M402.74 357.47C410.39 360.88 417.03 365.18 422.47 370.01 427.88 374.29 432.05 379.23 434.84 384.64 437.61 389.69 439.06 395.47 439.08 401.9 439.24 408.2 438.13 415.36 435.71 423.22 433.64 431.07 430.57 438.91 426.8 446.26 423.37 453.5 419.14 460.04 414.3 465.33 409.65 470.22 404.23 473.52 398.19 474.77 392.21 475.36 385.52 473.74 378.32 469.72 371.11 465.17 364.1 458.94 357.64 451.75 351.23 444.56 345.46 436.68 340.7 428.65 336.1 420.82 332.62 412.8 330.6 404.94 328.83 397.19 328.6 389.45 330.19 382.06 332.05 374.67 335.54 368.3 340.23 363.15 345.08 358.05 351.06 354.26 357.75 352 364.5 349.84 371.91 349.22 379.55 350.24 387.22 351.2 395.1 353.62 402.74 357.47" stroke-dasharray="6 5" transform="rotate(84.84, 400, 400)" opacity="0.52"></path><path d="M398.33 368.7C410.43 373.98 419.32 382.44 423.87 392.15 428.45 400.97 429.09 412.25 425.16 424.86 422.1 437.46 415.55 449.01 407.23 456.66 399.4 463.27 389.06 464.52 377.56 458.49 366.05 451.14 355.59 438.97 348.3 425.84 341.42 413.03 338.27 399.39 340.74 387.47 343.93 375.54 352.11 367.4 362.64 364.08 373.41 360.83 386.23 362.25 398.33 368.7" stroke-dasharray="6 9" transform="rotate(88.88, 400, 400)" opacity="0.86"></path><path d="M393.99 379.92C402.96 384.09 409.62 390.92 413.15 398.76 416.72 406.14 417.41 415.18 414.6 424.63 412.28 434.08 407.14 442.12 400.6 447.03 394.33 451.39 386.29 451.87 377.66 447.27 369.03 441.93 361.44 432.97 356.33 423.12 351.42 413.33 349.31 402.84 351.29 393.82 353.69 384.78 359.76 378.81 367.55 376.46 375.51 374.05 385 375.08 393.99 379.92" stroke-dasharray="1 11" transform="rotate(92.92, 400, 400)" opacity="0.50"></path><path d="M389.87 391.15C401.73 396.61 407.8 409.98 404.05 422.55 401.15 435.12 390.15 441.88 378.62 436.04 367.09 428.91 359.23 412.79 361.84 400.63 365.22 388.45 378 384.47 389.87 391.15" stroke-dasharray="1 9" transform="rotate(96.96, 400, 400)" opacity="0.38"></path></g></svg>