<svg xmlns="http://www.w3.org/2000/svg" version="1.1" xmlns:xlink="http://www.w3.org/1999/xlink" xmlns:svgjs="http://svgjs.dev/svgjs" viewBox="0 0 800 800"><defs><linearGradient x1="50%" y1="0%" x2="50%" y2="100%" id="ssscribble-grad"><stop stop-color="hsl(206, 75%, 49%)" stop-opacity="1" offset="0%"></stop><stop stop-color="hsl(331, 90%, 56%)" stop-opacity="1" offset="100%"></stop></linearGradient></defs><g fill="none" stroke-width="1.5" stroke="url(#ssscribble-grad)" stroke-linecap="round"><path d="M778.19 271.89C994.71 304.76 1099.4 324.16 1009.07 332.91 801.86 344.51 642.09 351.69 634.86 362.43 770.12 387.14 934.06 428.83 1015.48 495.82 973.14 584.22 830.23 695.51 663.17 817.08 495.37 959.59 559.89 924.08 647.76 755.84 693.06 663.85 708.5 633.01 700.18 687.51 684.35 813.96 657.01 965.82 624.15 1077.4 591.29 1098.22 554.46 1018.39 508.32 878.02 454.67 732.93 379.45 637.71 277.21 618.03 166.73 673.72 43.92 772.32 -63.15 873.11 -118.45 952.58 -103.8 980.62 -9.98 956.54 114 888.92 217.95 793.6 226.07 691.12 110.44 585.51 -82.97 494.5 -242.32 421.8 -259.17 359.34 -118.11 311.51 76.41 272.96 154.06 238.3 42.71 205.86 -173.8 173 -301.09 140.14 -223.74 108.41 -18.83 81.1 147.18 57.67 150.21 45.72 11.67 51.23 -162.02 66.98 -237.41 103.86 -174.58 158.83 -10.94 210.66 163.87 258.81 276.58 283.37 301.69 264.4 251.05 197.41 170.1 83.73 79.63 -51.27 22.68 -179.34 5.74 -259.13 16.33 -263.56 52.96 -187.05 98.6 -54.65 151.8 73.04 198.31 146.22 231.17 125.43 264.03 13.86 281.69 -131.32 290.46 -245.11 306.79 -286.95 329.94 -237.42 376.3 -121.35 450.18 22.98 561.25 148.42 702.37 224.69 833.97 241.29 931.78 206.49 949.74 143.94 880.1 65.45 744.24 1.33 614.81 -36.42 586.21 -52.77 691.06 -40.36 888.85 -8.12 1051.48 38.07 1067.15 90.67 913.81 141.04 721.59 194.26 650.9 239.03 778.19 271.89Q778.19 271.89 778.19 271.89" opacity="0.81"></path><path d="M744.19 180.79C946.66 211.3 1061.87 237.75 1009.08 262.72 830.71 291.09 651.66 324.45 580.61 368.7 647.44 423.94 793.16 496.93 922.9 588.53 976.53 686.49 924.18 790.62 800.78 885.06 645.96 949.99 515.1 974.51 432.7 946.46 399.04 876.07 406.33 773.86 430.99 670.09 471.7 606.89 502.32 604.97 513.99 675.91 524.86 801.64 515.15 941.9 484.64 1043.4 454.12 1066.22 404.25 1000.75 335.83 876.85 266.62 737.66 180.49 629.5 86.91 580.4 9.36 598.42 -48.16 667 -61.53 756.67 -26.17 848.64 60.87 910.74 175.71 932.39 259.12 916.44 275.28 865.08 189.88 792.95 28.37 705 -144.71 617 -233.9 537.82 -185.22 460.49 -23.54 396.26 143.04 344.94 184.05 295.79 62.66 256.27 -139.8 225.75 -264.44 195.24 -212.23 175.18 -32.31 166.78 147.1 160.55 206.16 169.27 125.43 193.72 -36.01 220.01 -165.47 257.76 -192.78 298.69 -110 323.79 41.5 331.35 194.56 307.33 309.48 245.69 355.72 147.42 345.67 23.67 291.79 -97.76 228.39 -193.72 178.37 -234.11 133.99 -207.4 115.83 -116.61 119.82 10.78 129.88 122.92 152.48 182.22 182.99 159.43 213.51 57.95 250.49 -76.12 297.97 -190.08 351.53 -249.27 425.19 -230 522.46 -144.45 625.36 -18.31 739.01 111.26 839.91 213.43 896.99 273.26 894.56 284.93 819.63 260.01 706.57 205.56 591.24 145.24 540.23 94.31 599.32 49.73 756.14 26.99 939.96 24.63 1043.05 33.25 1001.36 55.39 833.72 84.56 665.58 117.14 619.55 150.27 744.19 180.79Q744.19 180.79 744.19 180.79" opacity="0.36"></path><path d="M710.19 195.13C898.08 223.3 1019.94 256.98 1001.52 297.22 859.27 339.82 680.24 392.99 562.33 458.56 556.03 528.74 649.43 611.12 779.87 700.87 892.96 783.88 932.42 858.51 893.58 910.66 792.23 930.36 663.97 911.09 543.5 850.98 439.46 768.21 370.91 673.87 332.08 594.71 315.26 561.4 310.31 584.82 304.49 667.51 303.49 789.65 291.11 917.74 262.94 1009.4 234.78 1033.68 192.16 981.58 140.04 874.77 92.73 745.55 46.44 631.51 14.45 559.91 4.47 542.95 26.64 576.36 87.27 641.76 164.33 726.57 252.15 802.42 316.58 854.25 318.51 881.86 245.65 876.77 103.23 845.9 -56.52 794.87 -175.19 732.28 -189.53 667.9 -92.27 598.5 70.73 535.79 202.1 483.59 209.65 431.37 82.08 390.5 -105.8 362.33 -226.66 334.16 -197.29 320.03 -45.8 319.13 133.96 318.2 236.47 329.67 218.11 350.26 98.36 365.82 -44.93 382.03 -137.96 389.66 -147.69 377.12 -69.23 341.79 58.18 277.27 201.84 188.53 317.41 79.29 388.85 -34.84 418.16 -129.57 412.76 -188.25 392.41 -191.96 357.38 -141.01 330.37 -43.01 319.75 75.32 309.06 171.28 317.33 217.68 345.49 193.43 373.66 101.79 420.4 -20.59 484.2 -131.87 547.95 -203.7 626.19 -211.11 710.03 -157.16 779.2 -57.36 830.98 62.23 845.09 174.33 817.05 263.78 741.92 316.45 635.18 333.67 544.68 318.44 499.61 284.24 538.67 244.64 661.03 198.3 829.59 162.3 969.99 140.93 1008.99 124.18 922.51 122.25 753.62 132.76 613 145.64 589.33 166.97 710.19 195.13Q710.19 195.13 710.19 195.13" opacity="0.66"></path><path d="M676.19 308.04C849.05 333.86 973.77 370.51 985.3 417.28 882.98 464.68 720.93 522.77 577.94 589.61 508.67 654.75 533.17 723.6 623.4 788.82 744.21 840.04 839.81 874.14 882.26 881.68 868.7 862.51 803.92 812.96 712.39 738.04 603.97 658.38 503.96 583.06 422.6 533 351.28 528.09 299.31 572.12 261.21 661.8 227.98 777.81 200.13 893.32 174.31 975.4 148.49 1000.6 125.92 960.78 110.46 871.18 99.87 755.19 104.87 641.92 131.44 555.72 168.06 509.82 225.55 508.15 294.18 541.79 345.91 603.95 373.62 673.5 353.35 735.39 277.06 788.55 150.84 818.67 3.14 825.85 -113.96 816.15 -161.61 789.48 -111.26 753.13 12.78 708.73 160.15 663.14 252.5 621.59 231 578.47 101.05 542.84 -71.8 517.02 -187.78 491.19 -178.57 476.41 -57.32 470.83 176.28 463 159.66 445.65 -18.72 407.65 -99.17 360.68 -107.41 293.49 -51.13 206.49 53.15 110.77 173.5 10.6 283.12 -78.43 377.64 -138.97 441.63 -160.47 480.1 -133.5 500.14 -66.24 509.17 32.32 517.78 138.34 522 217.99 535.03 252.59 560.85 227.42 586.67 145.36 624.06 35.08 668.53 -70.96 708.61 -150.69 746.55 -180.04 771.26 -156.21 777.53 -87.24 756.06 11.23 701.33 117.77 631.51 219.58 548.23 299.75 477.78 352.77 455.34 379.07 494.2 382.04 601.53 370.61 747.16 345.18 889.6 318.85 969.24 298.46 949.52 276.36 834.04 265.24 675.47 266.53 564.19 268.46 560.21 282.22 676.19 308.04Q676.19 308.04 676.19 308.04" opacity="0.73"></path><path d="M642.25 465.19C799.69 488.66 923.64 522.27 959.67 564.22 897.55 605.32 765.36 652.74 619.97 702.57 508.92 746.95 467.49 787.17 494.95 816.54 577.19 831.31 676.37 826.92 760.4 799.34 818.82 755.57 833.38 693.29 810.35 620.78 757.47 556.85 687.74 507.52 615.82 487.3 538.25 507.04 471.03 566.17 418.14 658.23 366.2 765.93 328.2 868.63 304.73 941.41 281.25 966.98 273.42 938.22 281.1 865.46 289.72 765.05 314.24 658.42 351.13 565.82 397.92 483.3 392.88 522.38 279.56 599.09 164.78 656.12 37.76 702.25 -68.91 733.16 -120.81 754.84 -100.43 760.4 -6.58 753.05 121.59 738.63 240.42 716.87 293.49 691.97 248.4 665.08 119.69 638.89 -37.74 615.41 -147.79 591.94 -155.77 572.31 -64.98 554.93 82.94 535.57 223.95 514.63 306.27 488.37 307.8 455.04 238.77 410.83 135.63 352.97 27.34 285.88 -44.47 206.05 -65.69 118.26 -38.83 34.67 27.95 -40.92 114 -95.98 213.05 -120.99 304.15 -110.05 379.21 -60.73 446.73 14.66 497.46 107.93 535.21 199.28 569.12 262.97 596.61 286.98 620.08 261.41 643.56 188.63 661.9 90.68 672.26 -7.95 678.79 -90.95 670.76 -136.72 643.92 -139.26 609.54 -101.84 557.1 -31.45 494.22 56.91 444.34 153.86 411.24 243.97 415.13 318.5 467.09 376.85 566.74 414.94 699.46 436.34 838.01 434.36 525.83 435.59 642.19 465.18Q642.25 465.19 642.25 465.19" opacity="0.64"></path><path d="M607.57 590.85C749.24 611.98 869.31 637.89 924.21 666.77 899.79 694.18 805.5 721.64 677.57 745.44 550.95 763.36 462.32 772.31 426.8 768.23 445.39 753.84 503.09 723.59 576.88 677.83 657.51 626.99 720.02 569.15 756.7 512.88 772.95 472.64 764.4 451.64 739.51 458.54 702.54 497.52 661.14 565.87 622.74 656.07 581.89 753.66 549.39 843.51 528.27 907.3 507.15 932.71 498.39 913.66 499.4 856.93 497.96 773.51 500.94 678.25 501.29 586.94 489.58 509.27 463.34 455.17 414.53 426.99 345.29 424.63 252.45 442.55 144.13 472.83 42.66 514.96 -40.08 556.79 -80.67 592.4 -67.15 626.88 2.53 650.29 113.66 662.13 226.11 670.26 308.38 668.57 324.65 658.88 261.59 647.77 137.24 631.18 -4.42 610.05 -107.12 588.93 -128.54 564.27 -66.42 535.55 54.6 505.4 190.6 468.67 298.13 423.93 351.65 375.48 341.84 317.29 283.67 250.24 192.72 182.08 102.12 109.92 33.57 40.1 -8.95 -17.86 -14.09 -60.84 10.97 -80.48 60.02 -74.31 122.17 -39.16 185.79 23.01 254.61 98.83 314.89 182.06 362.8 257.34 410.34 305.93 445.17 320.71 466.3 295.32 487.42 231.54 493.83 145.98 486.14 56.53 478.06 -25.51 456.22 -81.85 424 -105.35 397 -96.77 369.64 -56.83 353.14 5.39 360.64 83.65 396.11 166.54 466.32 245.08 562.56 318.53 678.2 379.11 791.15 426.06 871.32 462.69 900.07 488.53 862.03 507.22 769.99 520.03 646.01 531.01 533.14 543.43 479.17 554.39 504.87 569.73 607.57 590.85Q607.57 590.85 607.57 590.85" opacity="0.61"></path><path d="M574.24 624.86C700.03 643.63 812.71 660.56 879.32 674.61 886.1 687.42 831.21 695.04 734.48 695.41 617.77 691.89 510.31 678.45 431.91 654 390.15 625.35 387.62 586.86 414.49 541.41 465.81 499.29 523.7 458.82 576.17 426.98 626.55 413.05 660.92 418.31 678.83 446.88 689.25 498.64 686.97 570.42 676.12 655.03 662.61 741.17 645.4 818.31 626.62 873.43 607.84 898.12 588.39 887.35 566.49 845.4 541.92 779.37 510.04 698.86 467.08 615.4 416.62 535.96 351.33 469.83 272.01 421.38 190.6 391.35 105.75 379.54 29.83 382.05 -21.65 398.29 -41.39 420.95 -19.18 444.71 39.66 472.91 130.28 496.42 233.23 512.64 316.2 528.72 360.4 536.24 346.37 534.78 272.52 532.87 156.03 522.62 30.24 503.84 -64.74 485.06 -97.1 458.64 -61.69 425.14 28.58 391.19 146.78 349.51 260.57 300.88 347.87 252.12 390.59 197.69 388.35 140.55 345.62 87.85 280.08 38.24 209.84 -2.61 139.31 -29.73 87.1 -40.19 57.29 -29.7 44.08 -0.8 50.9 48.47 71.02 114.15 100.81 183.84 134.7 253.66 166.7 312.45 200.85 347.16 228.61 354.12 247.39 329.43 266.18 274.31 275.08 200.97 276.35 122.08 279.76 44.72 280.03 -16.37 282.78 -54.37 295.19 -69.17 319.29 -57.6 361.43 -24.11 420.18 27.27 499.33 90 594.48 156.73 689.33 226.8 777.14 292.24 839.43 349.84 861.24 403.23 835.38 447.59 761.86 483.66 661.83 515.83 554.32 542.36 471.27 564.97 443.08 586.33 479.22 606.07 574.18 624.85Q574.24 624.86 574.24 624.86" opacity="0.91"></path><path d="M540.18 550.53C756.71 583.39 857.74 589.76 778.88 567.36 588.38 540.27 417.75 484.34 341.66 417.39 358.69 380.3 422.73 382.43 473.75 450.49 527.25 576.22 538.37 727.85 505.51 839.42 472.65 860.21 398.92 779.84 288.47 646.45 180.5 503.78 65.18 397.89 5.08 342.77 105.99 339.67 337.88 381.02 64.18 347.53 -63.1 314.67 13.62 253.32 205.86 174.92 406.99 71.79 227.12 53.75 143.31 207.86 126.58 317.16 144.49 384.21 177.35 363.42 210.21 251.85 254.92 113.54 328.59 11.9 423.87 -32.06 566.12 0.64 721.01 80.8 813.14 190.83 794.99 298.04 644.45 382.07 476.31 461.42 412.89 517.67 540.18 550.53Q540.18 550.53 540.18 550.53" opacity="0.67"></path><path d="M506.25 403.85C694.13 432.01 811.57 431.89 797.9 408.63 674.54 388.63 512.05 356.25 383.89 330.46 304.61 335.9 282.56 378.38 284.52 466.85 305.39 585.96 310.18 713.75 282.02 805.41 253.85 829.69 195.4 776.7 125.71 675.49 74.93 552.12 53.03 440.1 95.39 358.93 186.63 304.82 319.24 277.53 421.96 262.21 414.99 256.89 286.13 244.61 98.25 216.45 -22.64 188.28 7.13 146.9 147.08 103.4 320.97 69.91 441.16 53.24 481.52 70.43 453.06 114.68 395.89 196.82 352.71 299.53 306.4 380.11 295.31 421.68 323.47 397.43 351.62 305.78 416.37 189.4 511.49 90.92 603.49 23.09 704.62 10.48 770.01 41.95 766.59 104.66 676.29 181.01 523.06 249.81 403.73 321.88 385.33 375.67 506.19 403.84Q506.25 403.85 506.25 403.85" opacity="0.87"></path><path d="M472.25 255.26C689.36 281.61 680.41 280.1 507.53 296.03 391.64 334.07 308.8 399.93 258.06 492.36 221.38 596.16 196.47 698.63 173 771.41 149.53 796.98 129.72 767.05 125.72 697.88 135.78 603.72 181.99 505.31 267.12 420.61 354.95 346.04 438.61 291.43 470.34 253.52 418.55 222.43 289.68 197.18 132.25 173.71 22.2 150.24 15.57 130.76 98.65 121.18 234.97 118.41 369.26 136.39 463.93 180.19 519.32 234.13 535.07 307.63 535.22 384.58 521.77 436.56 520.4 456.98 543.87 431.43 567.33 358.66 613.41 265.7 667.55 179.1 708.08 103.86 728.98 62.89 704.37 55.61 640.46 71.15 531.08 106.38 411.96 146.6 346.07 192.83 362.18 231.78 472.19 255.25Q472.25 255.26 472.25 255.26" opacity="0.18"></path><path d="M437.94 176.26C563.7 195.04 672.16 210.57 733.19 226.18 744.7 246.45 705.04 274.94 637.86 316.61 551.21 370.02 469.08 440.46 405.82 522.67 344.59 605.17 303.44 682.23 284.66 737.36 265.88 762.06 271.26 750.01 299.94 709.53 330.66 648.09 383.48 576.14 445.52 506.69 488.09 436.54 507.84 377.17 482.57 332.2 407.77 289.7 291.7 258.56 165.94 239.79 71.08 221.01 40.82 216.36 73.34 226.32 153.82 238.76 256.77 268.82 353.19 314.35 442.82 359.2 507.73 411.22 549.61 458.91 582.71 485.62 605.85 490.06 624.63 465.36 643.41 410.23 656.04 340.79 655.49 272.04 646.15 203.59 610.55 153.08 545.52 124.28 473.72 107.22 390.68 108.04 323.96 120.31 305.21 137.23 343.08 157.48 437.94 176.26Q437.94 176.26 437.94 176.26" opacity="0.16"></path><path d="M404.25 204.97C592.13 233.14 700.55 291.5 695.86 381.4 622.97 484.55 536.16 611.75 508 703.41 479.83 727.68 515.64 672.82 551.61 590.28 519.39 490.49 388.13 411.18 200.25 383.02 79.34 354.85 110.28 383.15 216.9 446.03 357.35 491.65 459.07 523.68 487.24 499.41 515.4 407.75 464.68 303.38 361.15 237.15 291.45 184.17 283.34 176.8 404.25 204.97Q404.25 204.97 404.25 204.97" opacity="0.88"></path><path d="M370.19 327.45C612.96 365.01 664.32 537.05 626.77 669.4 589.21 684.63 476.96 571.92 234.19 534.36 105.01 496.81 227.69 548.63 265.25 533.4 302.8 401.05 241.01 289.9 370.19 327.45Q370.19 327.45 370.19 327.45" opacity="0.28"></path></g></svg>